<svg xmlns="http://www.w3.org/2000/svg" xmlns:xlink="http://www.w3.org/1999/xlink" width="1342" height="910" viewBox="0 0 1342 910">
  <defs>
    <clipPath id="clip-path">
      <rect id="Rectangle_621" data-name="Rectangle 621" width="1342" height="910" transform="translate(-54 552)" fill="none" stroke="#707070" stroke-width="1"/>
    </clipPath>
  </defs>
  <g id="Mask_Group_10" data-name="Mask Group 10" transform="translate(54 -552)" clip-path="url(#clip-path)">
    <g id="Group_951" data-name="Group 951" transform="translate(0 80)">
      <path id="Path_790" data-name="Path 790" d="M479.558,376.489v108.8H466.545v-43.3L448.11,425.12v-65.5H424.8L411.24,347.212H393.89v66H352.14v74.93H341.3v-104.7l-30.363,14.391v62.525H302.8V364.084H292.5V335.8H282.2v-6.451h-4.338v5.458H252.374V356.64H228.517l-5.964,7.443V453.4H202.22V435.292l-12.742-11.661V380.955H145.018v35.232H128.751v29.774L109.232,465.81H96.761V371.527l-34.7-21.834v87.336H53.927V376.986H12.719v20.842H-6.258v99.742h-8.133V454.4H-42.043V441l-4.88-6.451H-76.744l-2.169,730.775H514.854V376.489Z" transform="translate(421.713 230.185)" fill="#fffae5"/>
      <path id="Path_791" data-name="Path 791" d="M-39.118,376.489v108.8h14.672v-43.3L-3.661,425.12v-65.5H22.626l15.283-12.406H57.471v66h47.072v74.93H116.77v-104.7L151,397.827v62.525h9.17V364.084h11.615V335.8H183.4v-6.451h4.89v5.458h28.732V356.64h26.9l6.725,7.443V453.4h22.924V435.292l14.366-11.661V380.955h50.129v35.232h18.34v29.774l22.008,19.849h14.06V371.527L431.6,349.693v87.336h9.17V376.986h46.461v20.842h21.4v99.742h9.17V454.4h31.178V441l5.5-6.451H588.1l2.253,734.09.066.07.069.226.057-3.611H-78.913V376.489Z" transform="translate(-212.52 230.185)" fill="#fffae5"/>
      <path id="Path_792" data-name="Path 792" d="M-42.183,376.489v108.8h13.542v-43.3L-9.457,425.12v-65.5H14.805l14.106-12.406H46.967v66H90.413v74.93H101.7v-104.7l31.6,14.391v62.525h8.463V364.084H152.48V335.8H163.2v-6.451h4.514v5.458h26.519V356.64H219.06l6.207,7.443V453.4h21.159V435.292l13.259-11.661V380.955h46.268v35.232h16.927v29.774l20.313,19.849H356.17V371.527l36.111-21.834v87.336h8.463V376.986h42.882v20.842h19.748v99.742h8.463V454.4h28.776V441l5.078-6.451h31.033l2.257,730.775h-617.9V376.489Z" transform="translate(980.48 230.185)" fill="#fffae5"/>
    </g>
  </g>
</svg>
