<svg id="Group_1078" data-name="Group 1078" xmlns="http://www.w3.org/2000/svg" xmlns:xlink="http://www.w3.org/1999/xlink" width="133.579" height="109.003" viewBox="0 0 133.579 109.003">
  <defs>
    <clipPath id="clip-path">
      <rect id="Rectangle_609" data-name="Rectangle 609" width="133.579" height="109.003" fill="none"/>
    </clipPath>
  </defs>
  <g id="Group_1077" data-name="Group 1077" clip-path="url(#clip-path)">
    <path id="Path_1349" data-name="Path 1349" d="M132.828,31.923c10.746,27.387-6.306,59.7-38.087,72.168s-66.255.376-77-27.011,6.306-59.7,38.087-72.168,66.255-.376,77,27.011" transform="translate(-2.466 0)" fill="#ce9b65"/>
    <path id="Path_1350" data-name="Path 1350" d="M67.223,90.248S75.93,75.811,71.3,73.287s-7.237,9.02-7.237,9.02" transform="translate(-10.877 -12.381)" fill="#ce9b65"/>
    <path id="Path_1351" data-name="Path 1351" d="M67.223,90.248S75.93,75.811,71.3,73.287s-7.237,9.02-7.237,9.02" transform="translate(-10.877 -12.381)" fill="none" stroke="#b67e48" stroke-linecap="round" stroke-linejoin="round" stroke-width="1.523"/>
    <path id="Path_1352" data-name="Path 1352" d="M122.112,66.142s-16.729-2.094-15.849-7.289,11.564-.1,11.564-.1" transform="translate(-18.035 -9.595)" fill="#ce9b65"/>
    <path id="Path_1353" data-name="Path 1353" d="M122.112,66.142s-16.729-2.094-15.849-7.289,11.564-.1,11.564-.1" transform="translate(-18.035 -9.595)" fill="none" stroke="#b67e48" stroke-linecap="round" stroke-linejoin="round" stroke-width="1.523"/>
    <path id="Path_1354" data-name="Path 1354" d="M54.351,53.44s-2.38,10.746-6.485,8.573,1.611-11.619,1.611-11.619" transform="translate(-7.875 -8.556)" fill="#ce9b65"/>
    <path id="Path_1355" data-name="Path 1355" d="M54.351,53.44s-2.38,10.746-6.485,8.573,1.611-11.619,1.611-11.619" transform="translate(-7.875 -8.556)" fill="none" stroke="#b67e48" stroke-linecap="round" stroke-linejoin="round" stroke-width="1.523"/>
    <path id="Path_1356" data-name="Path 1356" d="M103.354,34.938s9.083,6.217,10.594,1.824-9.119-7.379-9.119-7.379" transform="translate(-17.547 -4.988)" fill="#ce9b65"/>
    <path id="Path_1357" data-name="Path 1357" d="M103.354,34.938s9.083,6.217,10.594,1.824-9.119-7.379-9.119-7.379" transform="translate(-17.547 -4.988)" fill="none" stroke="#b67e48" stroke-linecap="round" stroke-linejoin="round" stroke-width="1.523"/>
    <path id="Path_1358" data-name="Path 1358" d="M104.115,82.818l4.695-3.675s2.718-2.683,1.6-4.4-2.617-5.357-.563-7.335,10.272,10.658,10.272,10.658,1.27,1.558.277,2.818-10.052,9.891-10.052,9.891" transform="translate(-17.676 -11.408)" fill="#ce9b65"/>
    <path id="Path_1359" data-name="Path 1359" d="M104.115,82.818l4.695-3.675s2.718-2.683,1.6-4.4-2.617-5.357-.563-7.335,10.272,10.658,10.272,10.658,1.27,1.558.277,2.818-10.052,9.891-10.052,9.891" transform="translate(-17.676 -11.408)" fill="none" stroke="#b67e48" stroke-linecap="round" stroke-linejoin="round" stroke-width="1.523"/>
    <path id="Path_1360" data-name="Path 1360" d="M77.893,90.893l5.958.242s3.808-.283,4.068-2.315,1.477-5.777,4.324-5.953.92,14.774.92,14.774-.043,2.01-1.615,2.326-14.066,1.022-14.066,1.022" transform="translate(-13.154 -14.069)" fill="#ce9b65"/>
    <path id="Path_1361" data-name="Path 1361" d="M77.893,90.893l5.958.242s3.808-.283,4.068-2.315,1.477-5.777,4.324-5.953.92,14.774.92,14.774-.043,2.01-1.615,2.326-14.066,1.022-14.066,1.022" transform="translate(-13.154 -14.069)" fill="none" stroke="#b67e48" stroke-linecap="round" stroke-linejoin="round" stroke-width="1.523"/>
    <path id="Path_1362" data-name="Path 1362" d="M89.458,53.546a5.986,5.986,0,1,1-7.651-3.128,5.848,5.848,0,0,1,7.651,3.128" transform="translate(-13.233 -8.486)" fill="#ad7a4a"/>
    <path id="Path_1363" data-name="Path 1363" d="M87.168,58.807s2.632,3.73.7,4.8S84.756,60.3,84.756,60.3" transform="translate(-14.389 -9.984)" fill="#f9bdd4"/>
    <path id="Path_1364" data-name="Path 1364" d="M86.512,59.935A3.637,3.637,0,0,1,87.555,62.6c-.293-.935-.734-1.738-1.043-2.668" transform="translate(-14.688 -10.175)" fill="#e06b94"/>
    <path id="Path_1365" data-name="Path 1365" d="M85.208,52.147c-.451-.75-2.3-.038-2.3-.038s-1.84.736-1.66,1.592,1.568,1.466,2.688,1.027,1.724-1.831,1.273-2.581" transform="translate(-13.792 -8.795)" fill="#420000"/>
    <line id="Line_79" data-name="Line 79" x1="1.58" y1="4.026" transform="translate(69.804 45.067)" fill="none" stroke="#420000" stroke-linecap="round" stroke-linejoin="round" stroke-width="1.375"/>
    <line id="Line_80" data-name="Line 80" y1="1.58" x2="4.026" transform="translate(69.546 48.75)" fill="none" stroke="#420000" stroke-linecap="round" stroke-linejoin="round" stroke-width="1.375"/>
    <path id="Path_1366" data-name="Path 1366" d="M88.379,44.181a1.152,1.152,0,0,0-.144,1.687,1.1,1.1,0,0,0,1.7-.067,2.01,2.01,0,0,0-.134-2.611,2.184,2.184,0,0,0-2.835-.225A2.465,2.465,0,0,0,86.7,46.28a2.832,2.832,0,0,0,3.122.844,3.163,3.163,0,0,0,1.7-1.359" transform="translate(-14.633 -7.223)" fill="none" stroke="#420000" stroke-linecap="round" stroke-linejoin="round" stroke-width="0.765"/>
    <path id="Path_1367" data-name="Path 1367" d="M73.724,50.608a1.151,1.151,0,0,0,1.688-.128,1.1,1.1,0,0,0-.339-1.672,2.01,2.01,0,0,0-2.556.55,2.184,2.184,0,0,0,.232,2.834,2.465,2.465,0,0,0,3.317-.26,2.833,2.833,0,0,0,.333-3.217,3.165,3.165,0,0,0-1.612-1.456" transform="translate(-12.24 -8.024)" fill="none" stroke="#420000" stroke-linecap="round" stroke-linejoin="round" stroke-width="0.765"/>
    <path id="Path_1368" data-name="Path 1368" d="M21.443,39.857a2.155,2.155,0,0,1-1.4-.659,2.191,2.191,0,0,1-.335-.454l-1.864-3.382-2.167-7.092L13.3,27.1,7.683,16.923a2.166,2.166,0,0,1,2.436-3.144l1.7.433,2.061,2.875,1.652-1.921L19.558,16.2,22,18.936l2.3-1.52,9.954,2.555A2.167,2.167,0,0,1,35.428,23.4l-12.1,15.627a2.2,2.2,0,0,1-.216.24,2.159,2.159,0,0,1-1.665.593" transform="translate(-1.259 -2.328)" fill="#f37700"/>
    <path id="Path_1369" data-name="Path 1369" d="M12.713,14.316,14.2,27.207l4.554,8.258-2.323-20.2Z" transform="translate(-2.158 -2.431)" fill="#f6b400"/>
    <path id="Path_1370" data-name="Path 1370" d="M24.749,40.27a2.15,2.15,0,0,0,.843-.5,2.118,2.118,0,0,0,.216-.239l3.012-3.889L26.782,17.926,22.04,16.709Z" transform="translate(-3.742 -2.837)" fill="#f6b400"/>
    <path id="Path_1371" data-name="Path 1371" d="M38.317,26.239l-.522-5.507-4.742-1.216,1.432,11.65" transform="translate(-5.611 -3.313)" fill="#f6b400"/>
    <path id="Path_1372" data-name="Path 1372" d="M1.484,11.709A1.9,1.9,0,0,0,.252,12.871a3.56,3.56,0,0,0-.135.369,2.137,2.137,0,0,0,1.034,2.607,1.913,1.913,0,0,0,2.066,0c.128-.079.247-.162.364-.242.087-.06.165-.114.238-.161l.09-.056a1.682,1.682,0,0,1,.257-.134.731.731,0,0,1,.42,0l.042.015c.039.017.076.035.111.052a.735.735,0,0,1,.108,1.2q-.066.046-.13.087a.732.732,0,0,1-.557.055c-.02-.006-.038-.013-.056-.02-.05-.025-.1-.052-.153-.081l-.011-.006a.682.682,0,0,0-.158-.066.724.724,0,0,0-.559,1.326A2.206,2.206,0,0,0,5.4,18.08a2.192,2.192,0,0,0,1.142-1.358l.012-.044.007-.022A2.073,2.073,0,0,0,5.7,14.162,2.176,2.176,0,0,0,3.958,13.8a3.382,3.382,0,0,0-1.115.55l-.086.06-.072.05-.13.088a.737.737,0,1,1-.132-1.357l.042.016c.039.017.076.034.111.051a1.58,1.58,0,0,1,.165.094l.017.011a.726.726,0,0,0,1.007-.179.707.707,0,0,0,.1-.208.723.723,0,0,0-.278-.8,2.745,2.745,0,0,0-2.1-.461" transform="translate(0 -1.976)" fill="#f37700"/>
    <path id="Path_1373" data-name="Path 1373" d="M6.258,7.26A2.336,2.336,0,0,0,4.79,8a2.056,2.056,0,0,0-.2.257,2.336,2.336,0,0,0-.25,1.926,4.312,4.312,0,0,0,1.293,2.029,4,4,0,0,0,3.074,1.136,2.339,2.339,0,0,0,1.468-.739,2.177,2.177,0,0,0,.2-.257,2.335,2.335,0,0,0,.251-1.927A4.312,4.312,0,0,0,9.332,8.4,4,4,0,0,0,6.258,7.26M8.54,9.317c.865.8,1.093,1.891.509,2.437s-1.759.339-2.624-.462S5.331,9.4,5.916,8.856s1.759-.34,2.624.461" transform="translate(-0.72 -1.229)" fill="#f37700"/>
  </g>
</svg>
