<svg xmlns="http://www.w3.org/2000/svg" width="481.674" height="303.407" viewBox="0 0 481.674 303.407">
  <g id="Group_1090" data-name="Group 1090" transform="translate(47.868 -531.283)">
    <g id="Group_357" data-name="Group 357" transform="translate(317.5 578.383)" opacity="0.2">
      <path id="Path_286" data-name="Path 286" d="M442.916,387.417l-21.018-36.4,21.018-36.4h42.035l21.019,36.4-21.019,36.4Z" transform="translate(-421.899 -314.609)" fill="#fccc08"/>
    </g>
    <g id="Group_358" data-name="Group 358" transform="translate(229.536 657.787)" opacity="0.1">
      <path id="Path_286-2" data-name="Path 286" d="M472.965,491.512,421.9,403.06l51.067-88.452H575.1l51.07,88.452L575.1,491.512Z" transform="translate(-421.899 -314.609)" fill="#fccc08"/>
    </g>
    <g id="Group_359" data-name="Group 359" transform="translate(150.873 746.239)" opacity="0.3">
      <path id="Path_286-3" data-name="Path 286" d="M444.681,393.531,421.9,354.07l22.783-39.461h45.565l22.784,39.461-22.784,39.461Z" transform="translate(-421.899 -314.609)" fill="#fccc08"/>
    </g>
    <g id="Group_362" data-name="Group 362" transform="translate(66.047 584.865) rotate(120)" opacity="0.2">
      <path id="Path_286-4" data-name="Path 286" d="M444.681,393.531,421.9,354.07l22.783-39.461h45.565l22.784,39.461-22.784,39.461Z" transform="translate(-421.899 -314.609)" fill="#fccc08"/>
    </g>
    <g id="Group_360" data-name="Group 360" transform="translate(118 726.014)" opacity="0.1">
      <path id="Path_286-5" data-name="Path 286" d="M433.576,355.06,421.9,334.834l11.677-20.225H456.93l11.678,20.225L456.93,355.06Z" transform="translate(-421.899 -314.609)" fill="#fccc08"/>
    </g>
    <g id="Group_361" data-name="Group 361" transform="translate(92 551.509) rotate(120)" opacity="0.1">
      <path id="Path_286-6" data-name="Path 286" d="M433.576,355.06,421.9,334.834l11.677-20.225H456.93l11.678,20.225L456.93,355.06Z" transform="translate(-421.899 -314.609)" fill="#fccc08"/>
    </g>
  </g>
</svg>
