<svg id="Group_1082" data-name="Group 1082" xmlns="http://www.w3.org/2000/svg" xmlns:xlink="http://www.w3.org/1999/xlink" width="122.243" height="128.1" viewBox="0 0 122.243 128.1">
  <defs>
    <clipPath id="clip-path">
      <rect id="Rectangle_618" data-name="Rectangle 618" width="122.243" height="128.1" fill="none"/>
    </clipPath>
  </defs>
  <g id="Group_1002" data-name="Group 1002" clip-path="url(#clip-path)">
    <path id="Path_934" data-name="Path 934" d="M120.128,60.915c0,28.587-26.892,51.762-60.064,51.762S0,89.5,0,60.915,26.892,9.154,60.064,9.154s60.064,23.174,60.064,51.761" transform="translate(0 -1.378)" fill="#ce9b65"/>
    <path id="Path_935" data-name="Path 935" d="M56.064,53.264s-3.36,5.729,1.82,7.012c4.585,1.134,4.564-7.012,4.564-7.012Z" transform="translate(-8.276 -8.016)" fill="#e5c9b2"/>
    <path id="Path_936" data-name="Path 936" d="M62.655,53.271a3.211,3.211,0,1,1-3.21-3.21,3.21,3.21,0,0,1,3.21,3.21" transform="translate(-8.463 -7.534)" fill="#420000"/>
    <path id="Path_937" data-name="Path 937" d="M21.288,36.5S4.126,32.74,7.583,26.18s18.552,2.532,18.552,2.532" transform="translate(-1.072 -3.582)" fill="#ce9b65"/>
    <path id="Path_938" data-name="Path 938" d="M117.606,39.67s17.162-3.762,13.706-10.322S112.76,31.88,112.76,31.88" transform="translate(-16.97 -4.059)" fill="#ce9b65"/>
    <path id="Path_939" data-name="Path 939" d="M107.54,110.745l5.489,7.776s4.063,4.544,6.887,2.9,8.747-3.749,11.739-.318-17.8,15.535-17.8,15.535-2.585,1.9-4.515.219-14.975-16.807-14.975-16.807" transform="translate(-14.201 -16.667)" fill="#ce9b65"/>
    <path id="Path_940" data-name="Path 940" d="M25.776,111.655l-6.551,6.906s-4.673,3.914-7.231,1.876-8.117-4.968-11.572-2,15.384,17.933,15.384,17.933,2.284,2.253,4.436.867S37.48,122.755,37.48,122.755" transform="translate(0 -16.804)" fill="#ce9b65"/>
    <path id="Path_941" data-name="Path 941" d="M79.213,66.529a9.556,9.556,0,1,1-9.545-9.11,9.336,9.336,0,0,1,9.545,9.11" transform="translate(-9.048 -8.642)" fill="#ad7a4a"/>
    <path id="Path_942" data-name="Path 942" d="M30.3,76.881s15.83-21.764,22.412-16.526S43.94,76.6,43.94,76.6" transform="translate(-4.561 -8.961)" fill="#ce9b65"/>
    <path id="Path_943" data-name="Path 943" d="M30.3,76.881s15.83-21.764,22.412-16.526S43.94,76.6,43.94,76.6" transform="translate(-4.561 -8.961)" fill="none" stroke="#b67e48" stroke-linecap="round" stroke-linejoin="round" stroke-width="2.375"/>
    <path id="Path_944" data-name="Path 944" d="M72.974,72.36S76.225,106.4,71.038,106.4c-5.766,0-2.518-33.228-2.518-33.228" transform="translate(-10.175 -10.89)" fill="#f9bdd4"/>
    <path id="Path_945" data-name="Path 945" d="M71.317,72.836c.48,9.746.87,19.574-.121,29.3.367-9.612-.012-19.688.121-29.3" transform="translate(-10.715 -10.962)" fill="#e06b94"/>
    <path id="Path_946" data-name="Path 946" d="M74.15,61.607c-.233-1.377-3.4-1.4-3.4-1.4s-3.164.021-3.4,1.4,1.476,3.093,3.4,3.093,3.629-1.716,3.4-3.093" transform="translate(-10.134 -9.061)" fill="#420000"/>
    <line id="Line_77" data-name="Line 77" y1="6.903" transform="translate(60.619 54.155)" fill="none" stroke="#420000" stroke-linecap="round" stroke-linejoin="round" stroke-width="2.145"/>
    <line id="Line_78" data-name="Line 78" x2="6.903" transform="translate(57.167 61.825)" fill="none" stroke="#420000" stroke-linecap="round" stroke-linejoin="round" stroke-width="2.145"/>
    <path id="Path_947" data-name="Path 947" d="M100,78.867S73.115,80.153,73.88,88.531s18.393,1.578,18.393,1.578" transform="translate(-11.117 -11.869)" fill="#ce9b65"/>
    <path id="Path_948" data-name="Path 948" d="M100,78.867S73.115,80.153,73.88,88.531s18.393,1.578,18.393,1.578" transform="translate(-11.117 -11.869)" fill="none" stroke="#b67e48" stroke-linecap="round" stroke-linejoin="round" stroke-width="2.375"/>
    <path id="Path_949" data-name="Path 949" d="M31.78,144.469a2.41,2.41,0,0,1-.821-1.515,2.439,2.439,0,0,1,0-.629l.554-4.271,2.731-7.809-1.379-2.623,1.668-12.862a2.418,2.418,0,0,1,4.268-1.222l1.238,1.51L40,118.992l2.754-.639,2.944,3.589.394,4.075,3.069.149,7.27,8.865a2.417,2.417,0,0,1-1.2,3.857l-21.2,6.072a2.407,2.407,0,0,1-2.243-.491" transform="translate(-4.656 -16.954)" fill="#f37700"/>
    <path id="Path_950" data-name="Path 950" d="M40.139,115.47l-7.172,12.575-1.352,10.433,11.236-19.7Z" transform="translate(-4.758 -17.378)" fill="#f6b400"/>
    <path id="Path_951" data-name="Path 951" d="M32.875,146.57a2.4,2.4,0,0,0,1.086.109,2.427,2.427,0,0,0,.353-.073l5.275-1.511,9.858-17.284-3.463-4.223Z" transform="translate(-4.948 -18.6)" fill="#f6b400"/>
    <path id="Path_952" data-name="Path 952" d="M55.345,142.679l3.164-5.3-3.463-4.224-6.4,11.425" transform="translate(-7.321 -20.04)" fill="#f6b400"/>
    <path id="Path_953" data-name="Path 953" d="M33.136,106.123a2.124,2.124,0,0,0-1.876.233,4.05,4.05,0,0,0-.364.242,2.383,2.383,0,0,0-.79,3.027,2.135,2.135,0,0,0,1.862,1.359c.166.013.329.017.487.022.117,0,.223.007.32.012l.118.008a1.922,1.922,0,0,1,.32.048.82.82,0,0,1,.377.278c.01.014.019.028.028.042q.036.061.066.12a.821.821,0,0,1-.7,1.153l-.174-.007a.822.822,0,0,1-.538-.319c-.014-.018-.025-.037-.037-.056-.028-.055-.056-.113-.083-.173l-.006-.012a.793.793,0,0,0-.1-.164.811.811,0,0,0-.97-.244.847.847,0,0,0-.156.092.805.805,0,0,0-.251.976,2.325,2.325,0,0,0,3.706,1.21l.041-.031.02-.015a2.314,2.314,0,0,0,.87-2.813,2.429,2.429,0,0,0-1.327-1.478,3.737,3.737,0,0,0-1.365-.24l-.118,0-.1,0-.174-.007A.822.822,0,1,1,33,108.072c.01.014.02.027.029.042.024.041.046.082.065.12a1.771,1.771,0,0,1,.087.193l.008.021a.81.81,0,0,0,1.024.5.789.789,0,0,0,.228-.12.808.808,0,0,0,.279-.906,3.063,3.063,0,0,0-1.588-1.8" transform="translate(-4.494 -15.953)" fill="#f37700"/>
    <path id="Path_954" data-name="Path 954" d="M40.185,105.311a2.61,2.61,0,0,0-1.809-.3,2.452,2.452,0,0,0-.349.1,2.6,2.6,0,0,0-1.5,1.568,4.808,4.808,0,0,0-.176,2.678,4.46,4.46,0,0,0,2.016,3.05,2.611,2.611,0,0,0,1.809.3,2.418,2.418,0,0,0,.349-.1,2.606,2.606,0,0,0,1.5-1.568,4.816,4.816,0,0,0,.176-2.678,4.461,4.461,0,0,0-2.017-3.05m.7,3.356c.251,1.29-.264,2.422-1.149,2.527s-1.807-.855-2.057-2.146.264-2.423,1.149-2.528,1.806.856,2.057,2.147" transform="translate(-5.455 -15.796)" fill="#f37700"/>
    <path id="Path_955" data-name="Path 955" d="M82.8,51.932c-1.177-.52-2.353-1.037-3.525-1.566l-1.027-.461v1.6l3.511-1.861.5-.263a.934.934,0,0,0,.332-1.267.947.947,0,0,0-1.267-.331l-3.511,1.862-.5.263a.93.93,0,0,0,0,1.6q1.841.83,3.688,1.645l.865.382a.949.949,0,0,0,1.266-.332.936.936,0,0,0-.332-1.266" transform="translate(-11.568 -7.173)" fill="#420000"/>
    <path id="Path_956" data-name="Path 956" d="M120.291,15.445,137.773,3.674l2.574,7.959Z" transform="translate(-18.104 -0.553)" fill="#f6b400"/>
    <path id="Path_957" data-name="Path 957" d="M119.23,10.926,122.832,0l3.773,2.571Z" transform="translate(-17.944 0)" fill="#f6b400"/>
  </g>
</svg>
